# xmcd
#
# Track frame offsets: 
#        150
#        3129
#        12992
#        15443
#        26290
#        28429
#        39705
#        50048
#        65961
#        77908
#        81913
#        85388
#        98155
#        107573
#        120413
#        131383
#        145288
#        156633
#        168922
#        173740
#        186748
#        199373
#        212303
#        219036
#        222506
#        232254
#        244883
#        257866
#        269812
#        272750
#        276296
#        281110
#        292704
#        298298
#        299431
#        300038
#        310522
#        320146
#        332652
#        342071
#        346030
#
# Disc length: 4699 seconds
#
# Revision: 0
# Processed by: cddbd v1.5.2PL0 Copyright (c) Steve Scherf et al.
# Submitted via: ExactAudioCopy v0.95b3
#
DISCID=77125929
DTITLE=The Beatles  - Live Before America - Purple Chick - Disc 1
DYEAR=1900
DGENRE=
TTITLE0=From Me To You (Pops and Lenny)
TTITLE1=Twist And Shout (The Mersey Sound)
TTITLE2=I Saw Her Standing There (The Mersey Sound)
TTITLE3=She Loves You (The Mersey Sound)
TTITLE4=intro (London Palladium 1)
TTITLE5=From Me To You (London Palladium 1)
TTITLE6=I'll Get You (London Palladium 1)
TTITLE7=She Loves You (London Palladium 1)
TTITLE8=Twist And Shout (London Palladium 1)
TTITLE9=outro (London Palladium 1)
TTITLE10=intro (Pop 63)
TTITLE11=I Saw Her Standing There (Pop 63)
TTITLE12=From Me To You (Pop 63)
TTITLE13=Money (That's What I Want) (Pop 63)
TTITLE14=Roll Over Beethoven (Pop 63)
TTITLE15=You Really Got A Hold On Me (Pop 63)
TTITLE16=She Loves You (Pop 63)
TTITLE17=Twist And Shout (Pop 63)
TTITLE18=intro (Drop In)
TTITLE19=She Loves You (Drop In)
TTITLE20=Twist And Shout (Drop In)
TTITLE21=I Saw Her Standing There (Drop In)
TTITLE22=Long Tall Sally (Drop In)
TTITLE23=outro (Drop In)
TTITLE24=From Me To You (Royal Variety)
TTITLE25=She Loves You (Royal Variety)
TTITLE26=Til There Was You (Royal Variety)
TTITLE27=Twist And Shout (Royal Variety)
TTITLE28=outro (Royal Variety)
TTITLE29=I Saw Her Standing There (Early Beatles)
TTITLE30=From Me To You (Jack Paar)
TTITLE31=She Loves You (Come To Town)
TTITLE32=Twist And Shout (Come To Town)
TTITLE33=From Me To You (reprise) (Come To Town)
TTITLE34=Intro (Morecambe and Wise)
TTITLE35=This Boy (Morecambe and Wise)
TTITLE36=All My Loving (Morecambe and Wise)
TTITLE37=I Want To Hold Your Hand (Morecambe and Wise)
TTITLE38=Not like it was in your day (Morecambe and Wise)
TTITLE39=Moonlight Bay (Morecambe and Wise)
TTITLE40=outro (Morecambe and Wise)
EXTD=
EXTT0=
EXTT1=
EXTT2=
EXTT3=
EXTT4=
EXTT5=
EXTT6=
EXTT7=
EXTT8=
EXTT9=
EXTT10=
EXTT11=
EXTT12=
EXTT13=
EXTT14=
EXTT15=
EXTT16=
EXTT17=
EXTT18=
EXTT19=
EXTT20=
EXTT21=
EXTT22=
EXTT23=
EXTT24=
EXTT25=
EXTT26=
EXTT27=
EXTT28=
EXTT29=
EXTT30=
EXTT31=
EXTT32=
EXTT33=
EXTT34=
EXTT35=
EXTT36=
EXTT37=
EXTT38=
EXTT39=
EXTT40=
PLAYORDER=
